 http://ecx.images-amazon.com/images/I/41XLCkXlvpL.jpg


 
http://img256.imageshack.us/i/georgemichaelliveinlond.png 
http://img411.imageshack.us/i/georgemichaelliveinlond.png 
http://img526.imageshack.us/i/georgemichaelliveinlond.png 
http://img407.imageshack.us/i/georgemichaelliveinlond.png 
http://img824.imageshack.us/i/georgemichaelliveinlond.png



Live in London is a live concert recording of George Michael's finals two concerts in London's Earls Court arena on 24 and 25 August 2008 as part of his 25 Live tour. This is the first live DVD of George Michael's career.


Produced by 	George Michael
Music by 	George Michael
Wham!
Distributed by 	Columbia Records (US)
Sony Music Entertainment (World)
Release date(s) 	7 December 2009 (UK/Europe)
8 December 2009 (US)
Language 	English




Disc 1

   1. "Waiting (Reprise)" (Michael)
   2. "Fastlove" (Michael/Rushen/McFadden/Washington)
   3. "I'm Your Man" (Mihcael)
   4. "Flawless (Go To The City)" (Michael/Alexander/Wooden/Turnier/Matthew/Stumm)
   5. "Father Figure" (Michael)
   6. "You Have Been Loved" (Michael/Austin)
   7. "An Easier Affair" (Michael/Cushnan/Ambrose/Flynn)
   8. "Everything She Wants" (Michael)
   9. "One More Try" (Michael)
  10. "A Different Corner" (Michael)
  11. "Too Funky" (Michael)
  12. "Shoot The Dog" (Michael/Flynn/Jackman/Oakey/Burton)
  13. "John and Elvis Are Dead" (Michael/Austin)
  14. "Faith" (Michael)
  15. "Spinning the Wheel" (Michael/Douglas)
  16. "Feeling Good" (Bricusse/Newley)
  17. "Roxanne" (Sting)
  18. "My Mother Had a Brother" (Michael)
  19. "Amazing" (Michael/Douglas)
  20. "Fantasy" (Michael)
  21. "Outside" (Michael)
  22. "Careless Whisper" (Michael/Ridgeley)
  23. "Freedom 90" (Michael)




General
Complete name                    : George Michael - Live in London.mkv
Format                           : Matroska
File size                        : 7.66 GiB
Duration                         : 2h 13mn
Overall bit rate                 : 8 221 Kbps
Encoded date                     : UTC 2009-12-17 11:05:23
Writing application              : mkvmerge v2.9.8 ('C'est le bon') built on Aug 13 2009 12:49:06
Writing library                  : libebml v0.7.7 + libmatroska v0.8.1

Video
ID                               : 1
Format                           : AVC
Format/Info                      : Advanced Video Codec
Format profile                   : High@L4.1
Format settings, CABAC           : Yes
Format settings, ReFrames        : 5 frames
Codec ID                         : V_MPEG4/ISO/AVC
Duration                         : 2h 13mn
Bit rate                         : 6 710 Kbps
Width                            : 1 280 pixels
Height                           : 720 pixels
Display aspect ratio             : 16:9
Frame rate                       : 25.000 fps
Color space                      : YUV
Chroma subsampling               : 4:2:0
Bit depth                        : 8 bits
Scan type                        : Progressive
Bits/(Pixel*Frame)               : 0.291
Stream size                      : 6.10 GiB (80%)
Title                            : H.264
Writing library                  : x264 core 79 r1354M 636f98f
Encoding settings                : cabac=1 / ref=5 / deblock=1:-3:-3 / analyse=0x3:0x113 / me=umh / subme=9 / psy=1 / psy_rd=1.1:0.0 / mixed_ref=1 / me_range=32 / chroma_me=1 / trellis=2 / 8x8dct=1 / cqm=0 / deadzone=21,11 / chroma_qp_offset=-2 / threads=6 / nr=0 / decimate=1 / mbaff=0 / constrained_intra=0 / bframes=5 / b_pyramid=0 / b_adapt=2 / b_bias=0 / direct=3 / wpredb=1 / wpredp=2 / keyint=250 / keyint_min=25 / scenecut=40 / rc_lookahead=0 / rc=2pass / mbtree=0 / bitrate=6710 / ratetol=1.0 / qcomp=0.60 / qpmin=10 / qpmax=51 / qpstep=4 / cplxblur=20.0 / qblur=0.5 / vbv_maxrate=50000 / vbv_bufsize=50000 / ip_ratio=1.40 / pb_ratio=1.30 / aq=1:1.00
Language                         : English

Audio
ID                               : 2
Format                           : DTS
Format/Info                      : Digital Theater Systems
Codec ID                         : A_DTS
Duration                         : 2h 13mn
Bit rate mode                    : Constant
Bit rate                         : 1 510 Kbps
Channel(s)                       : 6 channels
Channel positions                : Front: L C R, Side: L R, LFE
Sampling rate                    : 48.0 KHz
Bit depth                        : 24 bits
Stream size                      : 1.41 GiB (18%)
Title                            : DTS5.1
Language                         : English

Menu
00:00:00.000                     : :Opening
00:01:41.735                     : :01. Waiting (Reprise)
00:04:29.269                     : :02. Fastlove
00:10:06.539                     : :03. I’m Your Man
00:16:16.342                     : :04. Flawless (Go To The City)
00:21:24.984                     : :05. Father Figure
00:27:38.056                     : :06. You Have Been Loved
00:33:14.659                     : :07. An Easier Affair
00:38:10.688                     : :08. Everything She Wants
00:45:03.434                     : :09. One More Try
00:50:14.478                     : :10. A Different Corner
00:54:22.259                     : :11. Too Funky
00:58:44.955                     : :12. Shoot The Dog
01:01:52.342                     : :13. John And Elvis Are Dead
01:06:09.432                     : :14. Faith
01:09:31.968                     : :15. Spinning The Wheel
01:19:44.279                     : :16. Feeling Good
01:23:44.786                     : :17. Roxanne
01:28:20.695                     : :18. My Mother Had A Brother
01:35:29.457                     : :19. Amazing
01:41:40.995                     : :20. Fantasy
01:47:04.318                     : :21. Outside
01:52:57.638                     : :22. Careless Whisper
02:00:33.893                     : :23. Freedom ’90
02:09:19.318                     : :End Credits

